HIERARCHY
ROOT Hips
{
	OFFSET 0.000000 0.000000 0.000000 
	CHANNELS 6 Xposition Yposition Zposition Yrotation Zrotation Xrotation 
	JOINT Lumbar
	{
		OFFSET 0.000000 0.000000 0.000000 
		CHANNELS 3 Zrotation Xrotation Yrotation
		JOINT Neck
		{
			OFFSET 0.000000 0.445665 0.000000 
			CHANNELS 3 Zrotation Xrotation Yrotation
			End Site
			{
				OFFSET 0.000000 0.227535 0.000000 
			}
		}
		JOINT RightShoulder
		{
			OFFSET 0.019635 0.377685 0.194865 
			CHANNELS 3 Zrotation Xrotation Yrotation
			JOINT RightElbow
			{
				OFFSET 0.000000 -0.243375 0.000000 
				CHANNELS 2 Zrotation Yrotation
				JOINT RightWrist
				{
					OFFSET 0.000000 -0.264825 0.000000 
					CHANNELS 2 Zrotation Xrotation
					End Site
					{
						OFFSET 0.006600 -0.176220 0.000990 
					}
				}
			}
		}
		JOINT LeftShoulder
		{
			OFFSET 0.019635 0.377685 -0.194865 
			CHANNELS 3 Zrotation Xrotation Yrotation
			JOINT LeftElbow
			{
				OFFSET 0.000000 -0.243375 0.000000 
				CHANNELS 2 Zrotation Yrotation
				JOINT LeftWrist
				{
					OFFSET 0.000000 -0.264825 0.000000 
					CHANNELS 2 Zrotation Xrotation
					End Site
					{
						OFFSET 0.006600 -0.176220 -0.000990 
					}
				}
			}
		}
	}
	JOINT RightHip
	{
		OFFSET 0.052140 -0.069960 0.075570 
		CHANNELS 3 Zrotation Xrotation Yrotation
		JOINT RightKnee
		{
			OFFSET 0.000000 -0.402270 0.000000 
			CHANNELS 1 Zrotation
			JOINT RightAnkle
			{
				OFFSET 0.000000 -0.404085 0.000000 
				CHANNELS 3 Zrotation Xrotation Yrotation
				End Site
				{
					OFFSET 0.204105 -0.089430 0.008415 
				}
			}
		}
	}
	JOINT LeftHip
	{
		OFFSET 0.052140 -0.069960 -0.075570 
		CHANNELS 3 Zrotation Xrotation Yrotation
		JOINT LeftKnee
		{
			OFFSET 0.000000 -0.402270 0.000000 
			CHANNELS 1 Zrotation
			JOINT LeftAnkle
			{
				OFFSET 0.000000 -0.404085 0.000000 
				CHANNELS 3 Zrotation Xrotation Yrotation
				End Site
				{
					OFFSET 0.204105 -0.089430 -0.008415 
				}
			}
		}
	}
}
MOTION
Frames: 19
Frame Time: 0.02
1.25759 0.95682 -0.70652 -24.36444 0 -8.05251 0.5032 1.83722 4.89647 5.5359 10.74872 -1.27903 26.21343 -24.09372 21.19072 134.30019 139.08549 -75.2233 -21.87637 -32.93448 24.87021 -55.63419 66.30782 -122.14393 -75.22935 21.88694 13.32472 9.34744 5.55346 -29.00254 7.16392 -6.40222 -13.18351 4.52791 -0.50185 -12.39946 -20.40033 9.83095 7.91913 12.3862
1.2657 0.9569 -0.70357 -24.42965 0 -8.25907 0.4078 2.14452 4.45607 4.88948 11.42525 -1.60323 29.40031 -24.18053 22.63495 134.30264 138.26716 -75.23667 -21.89959 -32.26817 23.91675 -55.63419 65.64318 -122.24266 -75.22935 21.88692 14.04167 9.38316 5.8066 -26.37782 6.43086 -6.05816 -12.52315 3.88244 -0.29738 -12.25308 -20.12879 10.10633 8.07705 12.4329
1.27386 0.95685 -0.70038 -24.38377 0 -8.40925 0.32708 2.42692 4.04375 4.23773 12.08178 -1.89215 32.45783 -24.21887 24.11722 134.30168 137.28326 -75.23131 -21.88932 -31.50339 22.95311 -55.63418 64.9195 -122.32208 -75.22935 21.88689 14.6173 9.32678 5.98066 -23.59238 5.55425 -5.62447 -11.81498 3.19004 -0.13898 -12.18853 -19.77625 10.34491 8.22611 12.45023
1.28203 0.95684 -0.69728 -24.38196 0 -8.58066 0.24294 2.71978 3.6159 3.6001 12.7425 -2.19383 35.55998 -24.28486 25.55565 134.29533 136.42096 -75.19683 -21.83136 -30.79358 21.99212 -55.63418 64.21261 -122.41947 -75.22935 21.88687 15.24537 9.31 6.21266 -20.89346 4.76217 -5.24516 -11.16599 2.51483 0.03809 -12.08771 -19.45746 10.60266 8.38229 12.4745
1.29003 0.95693 -0.69427 -24.40941 0 -8.7698 0.14483 3.01635 3.19857 2.90031 13.4335 -2.5138 38.75241 -24.3246 27.12932 134.31629 135.35616 -75.31113 -22.02738 -30.02815 21.02544 -55.63417 63.54065 -122.48046 -75.22934 21.88684 15.92146 9.30656 6.38376 -18.11759 3.88501 -4.80815 -10.3548 1.85786 0.22379 -11.98223 -19.15158 10.84969 8.52468 12.52744
1.29841 0.95676 -0.69099 -24.34851 0 -8.90871 0.07988 3.29878 2.76674 2.33584 14.0464 -2.78283 41.70722 -24.40764 28.41623 134.28202 134.67408 -75.12371 -21.70091 -29.36348 20.08281 -55.63417 62.79069 -122.6087 -75.22934 21.88682 16.46519 9.25233 6.64227 -15.48064 3.15255 -4.46916 -9.86485 1.15135 0.38114 -11.90596 -18.80029 11.11096 8.69418 12.51243
1.30782 0.95598 -0.68707 -24.07303 0 -8.9258 0.0976 3.55424 2.28584 2.11836 14.52823 -2.95414 44.12388 -24.63192 28.96409 134.07461 135.11834 -73.99768 -19.81685 -28.95755 19.09849 -55.63417 61.76881 -122.96413 -75.22934 21.88684 16.67008 9.07721 7.26866 -13.1546 2.85116 -4.43402 -10.35991 0.32098 0.46915 -11.8936 -18.33547 11.41417 8.93892 12.32523
1.31763 0.95493 -0.68286 -23.71177 0 -8.89402 0.14952 3.7954 1.79096 2.04336 14.91586 -3.06912 46.28563 -24.89976 29.20664 133.81545 135.94916 -72.58785 -17.43182 -28.66536 18.16199 -55.63418 60.68515 -123.38058 -75.22935 21.88687 16.74774 8.85474 7.96534 -10.99646 2.70061 -4.49868 -11.16686 -0.55787 0.53093 -11.90768 -17.82975 11.73409 9.21215 12.06938
1.3273 0.95398 -0.67872 -23.38809 0 -8.88257 0.18872 4.03908 1.30268 1.92367 15.29552 -3.18677 48.50543 -25.14215 29.54754 133.59448 136.58566 -71.38186 -15.35588 -28.35144 17.27393 -55.63418 59.67477 -123.74592 -75.22935 21.88689 16.88967 8.65473 8.55287 -8.8359 2.48501 -4.51043 -11.77444 -1.41569 0.60608 -11.9072 -17.34706 12.05057 9.47291 11.83887
1.3368 0.95313 -0.67483 -23.06657 0 -8.87647 0.21491 4.29817 0.80995 1.72129 15.89356 -3.3987 50.96892 -25.40811 30.06627 133.31272 137.29597 -69.86473 -12.93201 -27.90919 16.08049 -55.63419 58.46605 -124.21179 -75.22935 21.88692 17.00157 8.44526 9.45262 -6.35647 2.25329 -4.5509 -12.6179 -2.27132 0.67271 -11.91892 -16.84019 12.3484 9.72927 11.63039
1.34674 0.952 -0.67035 -22.72154 0 -8.84914 0.27812 4.52274 0.32828 1.72211 16.00879 -3.403 52.86116 -25.63415 30.13449 133.14374 137.94523 -68.9215 -11.11811 -27.76035 15.54552 -55.63419 57.66331 -124.47986 -75.22935 21.88694 17.14494 8.24839 9.73395 -4.58464 2.08818 -4.55644 -13.05175 -3.14188 0.75243 -11.91218 -16.3783 12.68932 10.00429 11.36224
1.35768 0.95022 -0.66451 -22.33454 0 -8.76904 0.41861 4.64989 -0.16624 2.27483 14.86545 -2.83439 53.2794 -25.75468 29.09527 133.31272 138.34623 -69.69285 -11.07471 -28.41341 16.72124 -55.63419 57.93747 -124.21358 -75.22935 21.88692 17.43091 8.07288 8.16358 -4.71693 2.11241 -4.44141 -12.21601 -4.04584 0.86694 -11.83226 -16.02439 13.14646 10.30013 10.9278
1.36905 0.94816 -0.65807 -21.92767 0 -8.67091 0.59837 4.74394 -0.64056 3.02203 13.23148 -2.06225 53.12552 -25.83054 27.60358 133.59449 138.67231 -71.0402 -11.66631 -29.35427 18.57346 -55.63419 58.63223 -123.74112 -75.22935 21.88689 17.74953 7.91679 5.98987 -5.55906 2.1923 -4.28804 -10.9671 -4.96184 0.99731 -11.7351 -15.72339 13.64583 10.61731 10.43923
1.38029 0.94621 -0.65182 -21.52832 0 -8.58507 0.77069 4.85696 -1.09351 3.6639 11.78643 -1.39121 53.20591 -25.91754 26.27544 133.81546 139.02149 -72.08452 -11.99519 -30.15163 20.18204 -55.63419 59.17541 -123.34573 -75.22935 21.88687 18.03725 7.76867 4.17909 -6.08148 2.21843 -4.15267 -9.9511 -5.86991 1.12568 -11.65605 -15.41458 14.1258 10.94152 9.98761
1.39127 0.94432 -0.64591 -21.12963 0 -8.47934 0.89951 4.95295 -1.67579 4.38378 10.47545 -0.67852 53.38161 -26.0463 25.10534 134.07462 139.42292 -73.29385 -12.2102 -31.00833 21.5331 -55.63418 59.55529 -123.02314 -75.22934 21.88684 18.3864 7.54796 2.00655 -6.59324 2.3658 -4.01889 -8.76394 -6.79146 1.2308 -11.53564 -15.0319 14.60924 11.19995 9.48147
1.40289 0.94226 -0.63915 -20.72932 0 -8.41247 1.12881 5.07667 -1.98386 4.98361 8.77793 -0.00916 53.23172 -26.07488 23.51386 134.28204 139.70195 -74.2991 -12.80366 -31.80608 23.56778 -55.63418 60.36854 -122.4986 -75.22934 21.88682 18.61932 7.48364 0.43021 -7.29894 2.27706 -3.87066 -7.82037 -7.6854 1.38884 -11.49559 -14.82101 15.09274 11.59526 9.07688
1.41612 0.93972 -0.6303 -20.30057 0 -8.44848 1.61705 5.28562 -1.53963 5.22046 6.06555 0.52676 52.27697 -25.85558 20.77501 134.3163 139.57764 -74.60892 -14.43 -32.38968 27.43401 -55.63418 62.34026 -121.47223 -75.22934 21.88684 18.50216 7.84693 0.75923 -8.31733 1.47886 -3.69786 -7.74153 -8.51275 1.68611 -11.69299 -15.03406 15.58675 12.40097 8.96445
1.42999 0.93704 -0.6206 -19.87627 0 -8.52607 2.20639 5.52348 -0.82101 5.3264 2.99476 1.00548 51.02424 -25.53394 17.64764 134.29533 139.34451 -74.69342 -16.39308 -32.90014 31.94361 -55.63419 64.72163 -120.24934 -75.22935 21.88688 18.26995 8.36675 1.68743 -9.51246 0.44919 -3.51018 -7.90391 -9.30781 2.03683 -11.96956 -15.42759 16.07485 13.33399 8.95504
1.44361 0.93446 -0.61122 -19.46977 0 -8.59077 2.75529 5.74796 -0.22684 5.48057 0.13215 1.48595 49.93913 -25.24663 14.76066 134.30168 139.21661 -74.87638 -18.108 -33.43075 36.0875 -55.63419 66.87367 -119.11145 -75.22935 21.88691 18.10688 8.81525 2.26853 -10.66098 -0.44728 -3.32498 -7.89418 -10.11105 2.36513 -12.20235 -15.7605 16.55278 14.18712 8.90195
